<?xml version="1.0" encoding="UTF-8" standalone="no"?>
<!DOCTYPE svg PUBLIC "-//W3C//DTD SVG 1.1//EN"
 "http://www.w3.org/Graphics/SVG/1.1/DTD/svg11.dtd">
<!-- Generated by graphviz version 7.1.0 (0)
 -->
<!-- Title: G Pages: 1 -->
<svg width="827pt" height="351pt"
 viewBox="0.00 0.00 826.53 351.00" xmlns="http://www.w3.org/2000/svg" xmlns:xlink="http://www.w3.org/1999/xlink">
<g id="graph0" class="graph" transform="scale(1 1) rotate(0) translate(4 347)">
<title>G</title>
<polygon fill="white" stroke="none" points="-4,4 -4,-347 822.53,-347 822.53,4 -4,4"/>
<!-- n1 -->
<g id="node1" class="node">
<title>n1</title>
<g id="a_node1"><a xlink:href="https://github.com/mariusschlegel/mlflow2prov/Experiment?experiment_id=0&amp;name=Default" xlink:title="Experiment?experiment_id=0&amp;name=Default">
<ellipse fill="#fffc87" stroke="#808080" cx="593" cy="-143" rx="225.56" ry="18"/>
<text text-anchor="middle" x="593" y="-139.3" font-family="Times,serif" font-size="14.00">Experiment?experiment_id=0&amp;name=Default</text>
</a>
</g>
</g>
<!-- b1 -->
<g id="node5" class="node">
<title>b1</title>
<ellipse fill="gray" stroke="gray" cx="315" cy="-239" rx="1.8" ry="1.8"/>
</g>
<!-- n1&#45;&gt;b1 -->
<g id="edge3" class="edge">
<title>n1&#45;&gt;b1</title>
<path fill="none" stroke="darkgreen" d="M542.66,-161.02C467.55,-186.42 333.18,-231.85 316.68,-237.43"/>
<text text-anchor="middle" x="531" y="-182" font-family="Times,serif" font-size="10.00" fill="darkgreen">wasGeneratedBy</text>
</g>
<!-- ann1 -->
<g id="node2" class="node">
<title>ann1</title>
<polygon fill="none" stroke="gray" points="684.5,-88 495.5,-88 495.5,0 690.5,0 690.5,-82 684.5,-88"/>
<polyline fill="none" stroke="gray" points="684.5,-88 684.5,-82"/>
<polyline fill="none" stroke="gray" points="690.5,-82 684.5,-82"/>
<g id="a_node2_0"><a xlink:href="http://www.w3.org/ns/prov#type" xlink:title="&lt;TABLE&gt;">
<text text-anchor="start" x="506" y="-74" font-family="Times,serif" font-size="10.00">prov:type</text>
</a>
</g>
<text text-anchor="start" x="590" y="-74" font-family="Times,serif" font-size="10.00">Experiment</text>
<g id="a_node2_1"><a xlink:href="http://www.w3.org/ns/prov#type" xlink:title="&lt;TABLE&gt;">
<text text-anchor="start" x="506" y="-61" font-family="Times,serif" font-size="10.00">prov:type</text>
</a>
</g>
<g id="a_node2_2"><a xlink:href="http://www.w3.org/ns/prov#collection" xlink:title="&lt;TABLE&gt;">
<text text-anchor="start" x="590" y="-61" font-family="Times,serif" font-size="10.00">prov:collection</text>
</a>
</g>
<g id="a_node2_3"><a xlink:href="https://github.com/mariusschlegel/mlflow2prov/artifact_location" xlink:title="&lt;TABLE&gt;">
<text text-anchor="start" x="506" y="-48" font-family="Times,serif" font-size="10.00">artifact_location</text>
</a>
</g>
<text text-anchor="start" x="590" y="-48" font-family="Times,serif" font-size="10.00">mlflow&#45;artifacts:/0</text>
<g id="a_node2_4"><a xlink:href="https://github.com/mariusschlegel/mlflow2prov/experiment_id" xlink:title="&lt;TABLE&gt;">
<text text-anchor="start" x="506" y="-35" font-family="Times,serif" font-size="10.00">experiment_id</text>
</a>
</g>
<text text-anchor="start" x="590" y="-35" font-family="Times,serif" font-size="10.00">0</text>
<g id="a_node2_5"><a xlink:href="https://github.com/mariusschlegel/mlflow2prov/lifecycle_stage" xlink:title="&lt;TABLE&gt;">
<text text-anchor="start" x="506" y="-22" font-family="Times,serif" font-size="10.00">lifecycle_stage</text>
</a>
</g>
<text text-anchor="start" x="590" y="-22" font-family="Times,serif" font-size="10.00">active</text>
<g id="a_node2_6"><a xlink:href="https://github.com/mariusschlegel/mlflow2prov/name" xlink:title="&lt;TABLE&gt;">
<text text-anchor="start" x="506" y="-9" font-family="Times,serif" font-size="10.00">name</text>
</a>
</g>
<text text-anchor="start" x="590" y="-9" font-family="Times,serif" font-size="10.00">Default</text>
</g>
<!-- ann1&#45;&gt;n1 -->
<g id="edge1" class="edge">
<title>ann1&#45;&gt;n1</title>
<path fill="none" stroke="gray" stroke-dasharray="5,2" d="M593,-88.39C593,-101.31 593,-114.71 593,-124.88"/>
</g>
<!-- n2 -->
<g id="node3" class="node">
<title>n2</title>
<g id="a_node3"><a xlink:href="https://github.com/mariusschlegel/mlflow2prov/Creation?uid=0&amp;resource_type=Experiment" xlink:title="Creation?uid=0&amp;resource_type=Experiment">
<polygon fill="#9fb1fc" stroke="#0000ff" points="338,-343 0,-343 0,-307 338,-307 338,-343"/>
<text text-anchor="middle" x="169" y="-321.3" font-family="Times,serif" font-size="14.00">Creation?uid=0&amp;resource_type=Experiment</text>
</a>
</g>
</g>
<!-- ann2 -->
<g id="node4" class="node">
<title>ann2</title>
<polygon fill="none" stroke="gray" points="289.5,-270 18.5,-270 18.5,-208 295.5,-208 295.5,-264 289.5,-270"/>
<polyline fill="none" stroke="gray" points="289.5,-270 289.5,-264"/>
<polyline fill="none" stroke="gray" points="295.5,-264 289.5,-264"/>
<g id="a_node4_7"><a xlink:href="http://www.w3.org/ns/prov#startTime" xlink:title="&lt;TABLE&gt;">
<text text-anchor="start" x="29" y="-256" font-family="Times,serif" font-size="10.00">prov:startTime</text>
</a>
</g>
<text text-anchor="start" x="107" y="-256" font-family="Times,serif" font-size="10.00">2023&#45;10&#45;26T17:41:48.692000+00:00</text>
<g id="a_node4_8"><a xlink:href="http://www.w3.org/ns/prov#endTime" xlink:title="&lt;TABLE&gt;">
<text text-anchor="start" x="29" y="-243" font-family="Times,serif" font-size="10.00">prov:endTime</text>
</a>
</g>
<text text-anchor="start" x="107" y="-243" font-family="Times,serif" font-size="10.00">2023&#45;10&#45;26T17:41:48.692000+00:00</text>
<g id="a_node4_9"><a xlink:href="http://www.w3.org/ns/prov#type" xlink:title="&lt;TABLE&gt;">
<text text-anchor="start" x="29" y="-230" font-family="Times,serif" font-size="10.00">prov:type</text>
</a>
</g>
<text text-anchor="start" x="107" y="-230" font-family="Times,serif" font-size="10.00">Creation</text>
<g id="a_node4_10"><a xlink:href="https://github.com/mariusschlegel/mlflow2prov/uid" xlink:title="&lt;TABLE&gt;">
<text text-anchor="start" x="29" y="-217" font-family="Times,serif" font-size="10.00">uid</text>
</a>
</g>
<text text-anchor="start" x="107" y="-217" font-family="Times,serif" font-size="10.00">0</text>
</g>
<!-- ann2&#45;&gt;n2 -->
<g id="edge2" class="edge">
<title>ann2&#45;&gt;n2</title>
<path fill="none" stroke="gray" stroke-dasharray="5,2" d="M161.33,-270.33C163.08,-282.54 165.03,-296.19 166.52,-306.67"/>
</g>
<!-- b1&#45;&gt;n2 -->
<g id="edge4" class="edge">
<title>b1&#45;&gt;n2</title>
<path fill="none" stroke="darkgreen" d="M314.95,-241.09C314.72,-245.38 313.3,-261.22 305,-270 291.72,-284.04 274.33,-294.51 256.44,-302.28"/>
<polygon fill="darkgreen" stroke="darkgreen" points="255.23,-298.99 247.27,-305.99 257.86,-305.48 255.23,-298.99"/>
</g>
<!-- ann3 -->
<g id="node6" class="node">
<title>ann3</title>
<polygon fill="none" stroke="gray" points="343.5,-161 72.5,-161 72.5,-125 349.5,-125 349.5,-155 343.5,-161"/>
<polyline fill="none" stroke="gray" points="343.5,-161 343.5,-155"/>
<polyline fill="none" stroke="gray" points="349.5,-155 343.5,-155"/>
<g id="a_node6_11"><a xlink:href="http://www.w3.org/ns/prov#role" xlink:title="&lt;TABLE&gt;">
<text text-anchor="start" x="83" y="-147" font-family="Times,serif" font-size="10.00">prov:role</text>
</a>
</g>
<text text-anchor="start" x="161" y="-147" font-family="Times,serif" font-size="10.00">AddedExperiment</text>
<g id="a_node6_12"><a xlink:href="http://www.w3.org/ns/prov#startTime" xlink:title="&lt;TABLE&gt;">
<text text-anchor="start" x="83" y="-134" font-family="Times,serif" font-size="10.00">prov:startTime</text>
</a>
</g>
<text text-anchor="start" x="161" y="-134" font-family="Times,serif" font-size="10.00">2023&#45;10&#45;26T17:41:48.692000+00:00</text>
</g>
<!-- ann3&#45;&gt;b1 -->
<g id="edge5" class="edge">
<title>ann3&#45;&gt;b1</title>
<path fill="none" stroke="gray" stroke-dasharray="5,2" d="M247.49,-161.4C266.99,-172.34 290,-188.16 305,-208 312.15,-217.46 314.35,-232.31 314.87,-236.72"/>
</g>
</g>
</svg>
